<svg width="43" height="43" viewBox="0 0 43 43" fill="none" xmlns="http://www.w3.org/2000/svg">
<path d="M40.9906 19.9726C40.4133 8.94205 31.0033 0.467953 19.9727 1.04523C8.94206 1.62251 0.467962 11.0326 1.04524 22.0632C1.62252 33.0937 11.0326 41.5678 22.0632 40.9906C33.0938 40.4133 41.5679 31.0032 40.9906 19.9726Z" fill="url(#paint0_linear_7_298)"/>
<path d="M14.7941 33.0663C12.9247 33.0663 11.7685 32.8223 10.9772 31.94C9.70073 30.5196 9.74503 27.8401 9.83998 21.9691C9.88007 19.4987 9.92859 16.4226 9.89061 12.6604C9.89061 10.7978 11.2051 9.29026 12.8234 9.29026H12.8508C18.8283 9.60832 23.1009 9.37305 26.2215 9.20095C30.2219 8.98092 32.2305 8.86981 33.4184 10.1922C34.6949 11.6125 34.6506 14.2921 34.5557 20.1631C34.5156 22.6335 34.4671 25.7095 34.505 29.4718C34.505 31.3344 33.1905 32.8419 31.5722 32.8419H31.5448C25.5674 32.526 21.2948 32.7613 18.1742 32.9312C16.8407 33.0053 15.7288 33.0663 14.7941 33.0663ZM12.8107 10.6104C11.8339 10.617 11.0405 11.5319 11.0405 12.6538C11.0785 16.4292 11.03 19.5161 10.9899 21.9952C10.9055 27.3064 10.8612 29.9728 11.779 30.9945C12.6082 31.9182 14.5662 31.8115 18.1193 31.6154C21.2589 31.4433 25.5611 31.2059 31.5849 31.5239C32.5618 31.5152 33.3551 30.6024 33.3551 29.4805C33.3171 25.7052 33.3657 22.6183 33.4057 20.1391C33.4901 14.828 33.5345 12.1615 32.6166 11.1398C31.7874 10.2161 29.8294 10.325 26.2763 10.5189C23.1367 10.691 18.8346 10.9285 12.8107 10.6104Z" fill="white"/>
<path d="M22.2336 26.7792C19.7882 26.7792 17.2859 25.0299 17.231 21.6881C17.2859 18.3267 19.7904 16.5773 22.2336 16.5773C24.6791 16.5773 27.1814 18.3267 27.2363 21.6685V21.6881C27.1814 25.0299 24.6769 26.7792 22.2315 26.7792H22.2336ZM22.2336 17.7646C20.4086 17.7646 18.4252 18.9933 18.3809 21.6881C18.4252 24.3632 20.4086 25.5919 22.2336 25.5919C24.0566 25.5919 26.0379 24.3676 26.0864 21.6794C26.0379 18.9911 24.0566 17.7668 22.2336 17.7668V17.7646Z" fill="white"/>
<path d="M29.6016 17.1873C28.439 17.1873 27.2596 16.366 27.2532 14.7997C27.2596 13.2268 28.4411 12.4077 29.6016 12.4077C30.7642 12.4077 31.9436 13.229 31.9499 14.7953V14.7997C31.9436 16.3682 30.762 17.1873 29.6016 17.1873ZM29.6016 13.595C29.1585 13.595 28.4074 13.8499 28.4031 14.7997C28.4074 15.7452 29.1585 16 29.6016 16C30.0447 16 30.7958 15.7473 30.8 14.7975C30.7958 13.9109 30.1523 13.595 29.6016 13.595Z" fill="white"/>
<defs>
<linearGradient id="paint0_linear_7_298" x1="24.3712" y1="-2.83591" x2="17.8658" y2="43.4287" gradientUnits="userSpaceOnUse">
<stop stop-color="#FFDA72"/>
<stop offset="0.2" stop-color="#F86639"/>
<stop offset="0.34" stop-color="#E92954"/>
<stop offset="0.47" stop-color="#C51883"/>
<stop offset="0.53" stop-color="#BA1B90"/>
<stop offset="0.64" stop-color="#A024B0"/>
<stop offset="0.68" stop-color="#9527B2"/>
<stop offset="0.75" stop-color="#7A32BA"/>
<stop offset="0.83" stop-color="#5541C5"/>
</linearGradient>
</defs>
</svg>
