<svg width="62" height="62" viewBox="0 0 62 62" fill="none" xmlns="http://www.w3.org/2000/svg">
<path d="M31 38.5L30.3438 39.2546C30.7201 39.5818 31.2799 39.5818 31.6562 39.2546L31 38.5ZM14.3982 39.1255C14.9295 38.9747 15.2378 38.4217 15.087 37.8904C14.9361 37.3591 14.3831 37.0507 13.8518 37.2016L14.3982 39.1255ZM48.1482 37.2016C47.6169 37.0507 47.0639 37.3591 46.913 37.8904C46.7622 38.4217 47.0705 38.9747 47.6018 39.1255L48.1482 37.2016ZM45 15.6739C45 17.8815 44.1472 20.3593 42.7768 22.8916C41.4136 25.4104 39.5835 27.9012 37.7329 30.1139C35.8851 32.3232 34.0345 34.2345 32.6445 35.5943C31.9501 36.2736 31.3721 36.8138 30.969 37.1831C30.7675 37.3677 30.6097 37.5095 30.5031 37.6046C30.4498 37.6521 30.4092 37.688 30.3824 37.7116C30.3689 37.7234 30.3589 37.7322 30.3525 37.7378C30.3493 37.7407 30.3469 37.7427 30.3455 37.744C30.3447 37.7446 30.3442 37.745 30.344 37.7453C30.3438 37.7454 30.3438 37.7454 30.3437 37.7455C30.3437 37.7455 30.3438 37.7454 31 38.5C31.6562 39.2546 31.6564 39.2544 31.6566 39.2542C31.6568 39.2541 31.6571 39.2538 31.6574 39.2535C31.6581 39.253 31.6589 39.2522 31.66 39.2513C31.6622 39.2494 31.6653 39.2467 31.6693 39.2432C31.6772 39.2362 31.6887 39.2261 31.7037 39.213C31.7336 39.1866 31.7773 39.148 31.8338 39.0976C31.9469 38.9969 32.1114 38.8489 32.3201 38.6578C32.7372 38.2756 33.3312 37.7203 34.043 37.0239C35.4655 35.6324 37.3649 33.6714 39.2671 31.397C41.1665 29.1259 43.0864 26.5216 44.5357 23.8435C45.9778 21.1787 47 18.3576 47 15.6739H45ZM31 38.5C31.6562 37.7454 31.6563 37.7455 31.6563 37.7455C31.6562 37.7454 31.6562 37.7454 31.656 37.7453C31.6558 37.745 31.6553 37.7446 31.6546 37.744C31.6531 37.7427 31.6508 37.7407 31.6475 37.7378C31.6411 37.7322 31.6311 37.7234 31.6176 37.7116C31.5908 37.688 31.5502 37.6521 31.4969 37.6046C31.3903 37.5095 31.2325 37.3677 31.031 37.1831C30.6279 36.8138 30.0499 36.2736 29.3556 35.5943C27.9655 34.2345 26.1149 32.3232 24.2671 30.1139C22.4165 27.9012 20.5864 25.4104 19.2232 22.8916C17.8528 20.3593 17 17.8815 17 15.6739H15C15 18.3576 16.0222 21.1787 17.4643 23.8435C18.9136 26.5216 20.8335 29.1259 22.7329 31.397C24.6351 33.6714 26.5345 35.6324 27.957 37.0239C28.6688 37.7203 29.2628 38.2756 29.68 38.6578C29.8886 38.8489 30.0531 38.9969 30.1662 39.0976C30.2227 39.148 30.2664 39.1866 30.2963 39.213C30.3113 39.2261 30.3228 39.2362 30.3307 39.2432C30.3347 39.2467 30.3378 39.2494 30.34 39.2513C30.3411 39.2522 30.342 39.253 30.3426 39.2535C30.3429 39.2538 30.3432 39.2541 30.3434 39.2542C30.3436 39.2544 30.3438 39.2546 31 38.5ZM17 15.6739C17 8.14262 23.2472 2 31 2V0C22.1843 0 15 6.99684 15 15.6739H17ZM31 2C38.7528 2 45 8.14262 45 15.6739H47C47 6.99684 39.8157 0 31 0V2ZM60 48.5C60 49.8775 59.3342 51.2804 57.9407 52.6532C56.5436 54.0294 54.4707 55.3149 51.8286 56.4158C46.5487 58.6157 39.1852 60 31 60V62C39.3833 62 47.0199 60.5861 52.5978 58.2619C55.3846 57.1007 57.7051 55.6927 59.3442 54.078C60.9869 52.4598 62 50.5742 62 48.5H60ZM31 60C22.8148 60 15.4513 58.6157 10.1714 56.4158C7.52927 55.3149 5.45639 54.0294 4.05933 52.6532C2.66579 51.2804 2 49.8775 2 48.5H0C0 50.5742 1.01314 52.4598 2.65577 54.078C4.29487 55.6927 6.61539 57.1007 9.40218 58.2619C14.9801 60.5861 22.6167 62 31 62V60ZM2 48.5C2 46.7883 3.0354 45.0263 5.20191 43.3564C7.35839 41.6942 10.5098 40.2298 14.3982 39.1255L13.8518 37.2016C9.81729 38.3473 6.40622 39.9029 3.98092 41.7724C1.56566 43.634 0 45.9154 0 48.5H2ZM47.6018 39.1255C51.4902 40.2298 54.6416 41.6942 56.7981 43.3564C58.9646 45.0263 60 46.7883 60 48.5H62C62 45.9154 60.4343 43.634 58.0191 41.7724C55.5938 39.9029 52.1827 38.3473 48.1482 37.2016L47.6018 39.1255Z" fill="black" fill-opacity="0.7"/>
</svg>
