<svg width="55" height="54" viewBox="0 0 55 54" fill="none" xmlns="http://www.w3.org/2000/svg">
<path d="M1.5 0.105301C0.947715 0.105301 0.5 0.553016 0.5 1.1053C0.5 1.65759 0.947715 2.1053 1.5 2.1053V0.105301ZM7.70895 1.1053L8.67418 0.843886C8.55612 0.407983 8.16056 0.105301 7.70895 0.105301V1.1053ZM17.7985 38.359L16.8333 38.6205C16.9635 39.1014 17.4281 39.4131 17.9225 39.3513L17.7985 38.359ZM48.8433 34.4784L48.9673 35.4707C49.392 35.4176 49.7358 35.1002 49.8225 34.681L48.8433 34.4784ZM53.5 11.971L54.4793 12.1736C54.5402 11.8791 54.4653 11.5728 54.2754 11.3396C54.0855 11.1063 53.8007 10.971 53.5 10.971V11.971ZM10.6517 11.971L9.68651 12.2324L10.6517 11.971ZM1.5 2.1053H7.70895V0.105301H1.5V2.1053ZM17.9225 39.3513L48.9673 35.4707L48.7192 33.4862L17.6745 37.3668L17.9225 39.3513ZM49.8225 34.681L54.4793 12.1736L52.5207 11.7684L47.864 34.2758L49.8225 34.681ZM6.74373 1.36672L9.68651 12.2324L11.617 11.7096L8.67418 0.843886L6.74373 1.36672ZM9.68651 12.2324L16.8333 38.6205L18.7637 38.0976L11.617 11.7096L9.68651 12.2324ZM53.5 10.971H10.6517V12.971H53.5V10.971ZM26.5 48.5208C26.5 50.2122 25.1289 51.5833 23.4375 51.5833V53.5833C26.2334 53.5833 28.5 51.3168 28.5 48.5208H26.5ZM23.4375 51.5833C21.7461 51.5833 20.375 50.2122 20.375 48.5208H18.375C18.375 51.3168 20.6416 53.5833 23.4375 53.5833V51.5833ZM20.375 48.5208C20.375 46.8295 21.7461 45.4583 23.4375 45.4583V43.4583C20.6416 43.4583 18.375 45.7249 18.375 48.5208H20.375ZM23.4375 45.4583C25.1289 45.4583 26.5 46.8295 26.5 48.5208H28.5C28.5 45.7249 26.2334 43.4583 23.4375 43.4583V45.4583ZM48.1667 48.5208C48.1667 50.2122 46.7955 51.5833 45.1042 51.5833V53.5833C47.9001 53.5833 50.1667 51.3168 50.1667 48.5208H48.1667ZM45.1042 51.5833C43.4128 51.5833 42.0417 50.2122 42.0417 48.5208H40.0417C40.0417 51.3168 42.3082 53.5833 45.1042 53.5833V51.5833ZM42.0417 48.5208C42.0417 46.8295 43.4128 45.4583 45.1042 45.4583V43.4583C42.3082 43.4583 40.0417 45.7249 40.0417 48.5208H42.0417ZM45.1042 45.4583C46.7955 45.4583 48.1667 46.8295 48.1667 48.5208H50.1667C50.1667 45.7249 47.9001 43.4583 45.1042 43.4583V45.4583Z" fill="black" fill-opacity="0.7"/>
</svg>
