<svg width="40" height="40" viewBox="0 0 40 40" fill="none" xmlns="http://www.w3.org/2000/svg">
<path d="M0 20C0 31.0457 8.95431 40 20 40C31.0457 40 40 31.0457 40 20C40 8.95431 31.0457 0 20 0C8.95431 0 0 8.95431 0 20Z" fill="#FF0109"/>
<path d="M26.9395 14.1935H13.0625C10.4791 14.1935 8.38483 16.2878 8.38483 18.8712V22.0804C8.38483 24.6638 10.4791 26.7581 13.0625 26.7581H26.9395C29.523 26.7581 31.6172 24.6638 31.6172 22.0804V18.8712C31.6172 16.2878 29.523 14.1935 26.9395 14.1935Z" fill="white"/>
<path d="M24.4287 19.9989C24.4287 19.9996 24.429 20.0002 24.4296 20.0005C24.7135 20.1591 24.7195 20.5635 24.4413 20.73L21.555 22.4665L18.6686 24.203C18.3901 24.3697 18.0356 24.1734 18.0293 23.8485L17.9681 20.4811L17.9069 17.1136C17.9006 16.7887 18.2487 16.5798 18.5335 16.7359L21.4811 18.3669L24.4278 19.9974C24.4283 19.9977 24.4287 19.9983 24.4287 19.9989Z" fill="#ED1C24"/>
</svg>
