<svg width="40" height="40" viewBox="0 0 40 40" fill="none" xmlns="http://www.w3.org/2000/svg">
<path d="M0 20C0 31.0457 8.95431 40 20 40C31.0457 40 40 31.0457 40 20C40 8.95431 31.0457 0 20 0C8.95431 0 0 8.95431 0 20Z" fill="#01E311"/>
<path d="M30.5591 13.6734C30.5586 13.6739 30.5577 13.6738 30.5574 13.6731C28.73 10.4394 25.2764 8.34053 21.5149 8.22028C17.7002 8.10001 13.7736 10.0243 11.7692 13.7019C10.0952 16.7698 10.0768 20.4791 11.6572 23.5978C11.9418 24.1595 12.0759 24.7932 11.9628 25.4126C11.6493 27.1287 13.1283 28.6366 14.8501 28.3559C14.9598 28.3381 15.0694 28.3202 15.179 28.3024C15.7834 28.2039 16.3982 28.3192 16.9627 28.5564C18.4401 29.177 21.5207 30.0895 24.9879 28.8089C25.547 28.6022 29.8682 26.9206 31.4232 22.169C32.8359 17.8486 30.8898 14.2551 30.5608 13.6735C30.5605 13.6728 30.5597 13.6729 30.5591 13.6734ZM29.8534 21.5318C28.598 25.5491 24.9795 27.0176 24.5047 27.2012C21.1371 28.5 18.1379 27.321 16.8976 26.6858C16.5227 26.4938 16.0954 26.4131 15.6835 26.5013C14.5829 26.7371 13.5903 25.7884 13.7626 24.6761C13.8276 24.2568 13.7194 23.8299 13.4974 23.4684C11.8487 20.7839 11.7182 17.4084 13.1955 14.6155C14.856 11.4759 18.1475 9.82804 21.3483 9.88501C24.5195 9.94409 27.4565 11.6742 29.0305 14.3813C29.3111 14.8644 30.997 17.8711 29.8534 21.5318Z" fill="white"/>
<path d="M18.522 13.8928C18.5227 13.8922 18.5236 13.8918 18.5246 13.8918C18.6421 13.8924 18.7469 13.9682 18.7826 14.0796C18.9809 14.6746 19.7637 16.4997 19.7025 16.6959C19.6286 16.9322 18.7277 17.6221 18.6918 17.9576C18.656 18.2931 19.3269 19.2278 20.0274 19.962C20.9811 20.96 22.4918 21.6162 22.6142 21.669C22.7366 21.7217 23.6755 20.3397 23.8696 20.2532C24.0637 20.1667 26.5555 21.5107 26.5555 21.7407C26.5555 21.9707 26.3614 22.7598 25.9015 23.3843C25.5808 23.8211 24.876 24.011 24.3528 24.0806C24.3289 24.0806 24.3061 24.0788 24.2825 24.0752C23.7827 23.9984 21.1265 23.6487 18.8332 21.3884C16.9195 19.5021 16.3456 17.3542 16.1641 16.4997C16.162 16.487 16.1599 16.4764 16.1599 16.4638C16.1494 16.1768 16.1599 15.3265 16.7655 14.5838C16.9997 14.2948 17.409 14.0247 17.5567 13.9298C17.5926 13.9066 17.6348 13.8939 17.677 13.8939H18.5194C18.5204 13.8939 18.5213 13.8935 18.522 13.8928Z" fill="white"/>
</svg>
